<svg width="18" height="18" viewBox="0 0 18 18" fill="none" xmlns="http://www.w3.org/2000/svg">
<path d="M1.66675 18C1.21675 18 0.826417 17.8347 0.49575 17.5042C0.16525 17.1736 0 16.7833 0 16.3333V1.66675C0 1.21675 0.16525 0.826417 0.49575 0.49575C0.826417 0.16525 1.21675 0 1.66675 0H16.3333C16.7833 0 17.1736 0.16525 17.5042 0.49575C17.8347 0.826417 18 1.21675 18 1.66675V16.3333C18 16.7833 17.8347 17.1736 17.5042 17.5042C17.1736 17.8347 16.7833 18 16.3333 18H1.66675ZM1.66675 16.3333H8.16675V1.66675H1.66675V16.3333ZM9.83325 16.3333H16.3333V8.98325H9.83325V16.3333ZM9.83325 7.31675H16.3333V1.66675H9.83325V7.31675Z" fill="#0B68DD"/>
</svg>
