<svg width="204" height="37" viewBox="0 0 204 37" fill="none" xmlns="http://www.w3.org/2000/svg">
<path d="M204 0H0V36.2667H204V0Z" fill="#49485E"/>
<path d="M70.1112 36.2667C70.1112 34.3616 69.5082 32.4752 68.3365 30.7152C67.1649 28.9552 65.4476 27.356 63.2826 26.0089C61.1177 24.6618 58.5476 23.5933 55.7189 22.8643C52.8903 22.1352 49.8586 21.76 46.797 21.76C43.7353 21.76 40.7036 22.1352 37.875 22.8643C35.0463 23.5933 32.4762 24.6618 30.3113 26.0089C28.1463 27.356 26.429 28.9552 25.2574 30.7152C24.0857 32.4752 23.4827 34.3616 23.4827 36.2667L46.797 36.2667H70.1112Z" fill="#C4B4FF"/>
<ellipse cx="43.7154" cy="15.1111" rx="20.4" ry="12.6933" fill="#7081E2"/>
<path d="M40.8004 4.29224e-05C40.8004 1.58758 41.3029 3.15957 42.2793 4.62626C43.2557 6.09295 44.6868 7.42562 46.4909 8.54818C48.295 9.67073 50.4368 10.5612 52.7939 11.1687C55.1511 11.7762 57.6775 12.0889 60.2289 12.0889C62.7803 12.0889 65.3067 11.7762 67.6639 11.1687C70.0211 10.5612 72.1629 9.67073 73.967 8.54818C75.7711 7.42562 77.2022 6.09295 78.1786 4.62626C79.155 3.15957 79.6575 1.58758 79.6575 4.19617e-05L60.2289 4.29224e-05H40.8004Z" fill="white"/>
<path d="M56.8059 18.991C57.2652 18.991 57.7332 18.9953 58.2099 19.004C58.6952 19.004 59.1675 19.017 59.6269 19.043C60.0949 19.0603 60.5282 19.0907 60.9269 19.134L60.8229 20.564H57.5729C57.3389 20.564 57.1612 20.6203 57.0399 20.733C56.9185 20.8457 56.8579 21.0103 56.8579 21.227V28H54.8689V20.824C54.8689 20.2693 55.0465 19.8273 55.4019 19.498C55.7572 19.16 56.2252 18.991 56.8059 18.991ZM55.1029 22.787H60.3419V24.191H55.1029V22.787ZM66.1352 19.03V28H64.1462V19.03H66.1352ZM68.8392 19.03V20.59H61.4552V19.03H68.8392ZM73.9555 19.03V28H71.9665V19.03H73.9555ZM76.6595 19.03V20.59H69.2755V19.03H76.6595ZM80.8173 24.074V25.296H76.9433V24.074H80.8173ZM84.3801 18.991C84.8394 18.991 85.3074 18.9953 85.7841 19.004C86.2694 19.004 86.7418 19.017 87.2011 19.043C87.6691 19.0603 88.1024 19.0907 88.5011 19.134L88.3971 20.564H85.1471C84.9131 20.564 84.7354 20.6203 84.6141 20.733C84.4928 20.8457 84.4321 21.0103 84.4321 21.227V28H82.4431V20.824C82.4431 20.2693 82.6208 19.8273 82.9761 19.498C83.3314 19.16 83.7994 18.991 84.3801 18.991ZM82.6771 22.787H87.9161V24.191H82.6771V22.787ZM93.2423 18.848C93.953 18.848 94.5553 18.926 95.0493 19.082C95.5433 19.2293 95.9377 19.4807 96.2323 19.836C96.5357 20.1827 96.7567 20.6593 96.8953 21.266C97.034 21.864 97.1033 22.6137 97.1033 23.515C97.1033 24.4163 97.034 25.1703 96.8953 25.777C96.7567 26.375 96.5357 26.8517 96.2323 27.207C95.9377 27.5537 95.5433 27.805 95.0493 27.961C94.5553 28.1083 93.953 28.182 93.2423 28.182C92.5317 28.182 91.9293 28.1083 91.4353 27.961C90.9413 27.805 90.5427 27.5537 90.2393 27.207C89.936 26.8517 89.715 26.375 89.5763 25.777C89.4377 25.1703 89.3683 24.4163 89.3683 23.515C89.3683 22.6137 89.4377 21.864 89.5763 21.266C89.715 20.6593 89.936 20.1827 90.2393 19.836C90.5427 19.4807 90.9413 19.2293 91.4353 19.082C91.9293 18.926 92.5317 18.848 93.2423 18.848ZM93.2423 20.421C92.783 20.421 92.4233 20.512 92.1633 20.694C91.912 20.876 91.73 21.1923 91.6173 21.643C91.5133 22.085 91.4613 22.709 91.4613 23.515C91.4613 24.3123 91.5133 24.9363 91.6173 25.387C91.73 25.8377 91.912 26.154 92.1633 26.336C92.4233 26.518 92.783 26.609 93.2423 26.609C93.693 26.609 94.044 26.518 94.2953 26.336C94.5553 26.154 94.7373 25.8377 94.8413 25.387C94.954 24.9363 95.0103 24.3123 95.0103 23.515C95.0103 22.709 94.954 22.085 94.8413 21.643C94.7373 21.1923 94.5553 20.876 94.2953 20.694C94.044 20.512 93.693 20.421 93.2423 20.421ZM102.076 18.9C102.864 18.9 103.501 18.9823 103.987 19.147C104.481 19.303 104.84 19.576 105.066 19.966C105.3 20.3473 105.417 20.8803 105.417 21.565C105.417 21.981 105.36 22.3493 105.248 22.67C105.144 22.982 104.966 23.2333 104.715 23.424C104.463 23.6147 104.121 23.736 103.688 23.788V23.853C103.844 23.879 104.004 23.9397 104.169 24.035C104.342 24.1303 104.502 24.2733 104.65 24.464C104.797 24.646 104.905 24.893 104.975 25.205L105.755 28H103.662L102.973 25.27C102.895 24.9753 102.778 24.7717 102.622 24.659C102.474 24.5463 102.266 24.49 101.998 24.49C101.408 24.49 100.91 24.49 100.503 24.49C100.104 24.4813 99.7659 24.4727 99.4885 24.464C99.2199 24.4553 98.9772 24.4467 98.7605 24.438L98.7995 22.995H102.037C102.383 22.995 102.656 22.9603 102.856 22.891C103.064 22.813 103.207 22.6787 103.285 22.488C103.371 22.2973 103.415 22.033 103.415 21.695C103.415 21.3483 103.371 21.084 103.285 20.902C103.207 20.7113 103.064 20.5813 102.856 20.512C102.656 20.434 102.383 20.395 102.037 20.395C101.222 20.395 100.533 20.3993 99.9695 20.408C99.4062 20.4167 99.0205 20.4297 98.8125 20.447L98.6175 19.03C98.9815 18.9867 99.3239 18.9563 99.6445 18.939C99.9652 18.9217 100.316 18.913 100.698 18.913C101.079 18.9043 101.538 18.9 102.076 18.9ZM100.581 19.03V28H98.6175V19.03H100.581ZM113.552 19.03V28H111.563V19.03H113.552ZM116.256 19.03V20.59H108.872V19.03H116.256ZM119.371 19.03V28H117.382V19.03H119.371ZM122.699 22.475V23.97H119.267V22.475H122.699ZM124.545 19.03V28H122.556V19.03H124.545ZM128.203 18.991C128.688 18.991 129.178 18.9953 129.672 19.004C130.166 19.004 130.651 19.0127 131.128 19.03C131.604 19.0473 132.051 19.0777 132.467 19.121L132.376 20.564H128.931C128.714 20.564 128.549 20.6203 128.437 20.733C128.333 20.8457 128.281 21.0103 128.281 21.227V25.803C128.281 26.0197 128.333 26.1843 128.437 26.297C128.549 26.4097 128.714 26.466 128.931 26.466H132.376L132.467 27.909C132.051 27.9437 131.604 27.974 131.128 28C130.651 28.0173 130.166 28.026 129.672 28.026C129.178 28.0347 128.688 28.039 128.203 28.039C127.631 28.039 127.167 27.8743 126.812 27.545C126.465 27.207 126.292 26.7693 126.292 26.232V20.798C126.292 20.252 126.465 19.8143 126.812 19.485C127.167 19.1557 127.631 18.991 128.203 18.991ZM126.526 22.631H131.895V24.035H126.526V22.631ZM140.39 19.03V28H138.401V19.03H140.39ZM143.094 19.03V20.59H135.71V19.03H143.094ZM146.195 19.03V28H144.219V19.03H146.195ZM157.193 19.03C157.661 19.03 157.904 19.2727 157.921 19.758L158.259 28H156.426L156.127 20.564H155.893L154.45 26.154C154.372 26.57 154.112 26.778 153.67 26.778H152.422C151.98 26.778 151.712 26.57 151.616 26.154L150.173 20.564H149.952L149.679 28H147.833L148.171 19.758C148.189 19.2727 148.436 19.03 148.912 19.03H150.771C151.196 19.03 151.456 19.2423 151.551 19.667L152.708 24.178C152.76 24.386 152.804 24.5983 152.838 24.815C152.873 25.023 152.912 25.2353 152.955 25.452H153.124C153.168 25.2353 153.207 25.023 153.241 24.815C153.285 24.5983 153.328 24.3817 153.371 24.165L154.515 19.667C154.602 19.2423 154.862 19.03 155.295 19.03H157.193ZM161.744 18.991C162.229 18.991 162.719 18.9953 163.213 19.004C163.707 19.004 164.192 19.0127 164.669 19.03C165.145 19.0473 165.592 19.0777 166.008 19.121L165.917 20.564H162.472C162.255 20.564 162.09 20.6203 161.978 20.733C161.874 20.8457 161.822 21.0103 161.822 21.227V25.803C161.822 26.0197 161.874 26.1843 161.978 26.297C162.09 26.4097 162.255 26.466 162.472 26.466H165.917L166.008 27.909C165.592 27.9437 165.145 27.974 164.669 28C164.192 28.0173 163.707 28.026 163.213 28.026C162.719 28.0347 162.229 28.039 161.744 28.039C161.172 28.039 160.708 27.8743 160.353 27.545C160.006 27.207 159.833 26.7693 159.833 26.232V20.798C159.833 20.252 160.006 19.8143 160.353 19.485C160.708 19.1557 161.172 18.991 161.744 18.991ZM160.067 22.631H165.436V24.035H160.067V22.631Z" fill="white"/>
</svg>
