<svg width="18" height="20" viewBox="0 0 18 20" fill="none" xmlns="http://www.w3.org/2000/svg">
<path d="M3 16.6667V15H5.0625L4.7625 14.7083C4.1125 14.0695 3.65625 13.3403 3.39375 12.5208C3.13125 11.7014 3 10.875 3 10.0417C3 8.50001 3.41563 7.12848 4.24688 5.92709C5.07812 4.7257 6.1625 3.93057 7.5 3.54168V5.29168C6.6 5.65279 5.875 6.26737 5.325 7.13543C4.775 8.00348 4.5 8.97223 4.5 10.0417C4.5 10.6667 4.60625 11.2743 4.81875 11.8646C5.03125 12.4549 5.3625 13 5.8125 13.5L6 13.7083V11.6667H7.5V16.6667H3ZM10.5 16.4583V14.7083C11.4 14.3472 12.125 13.7326 12.675 12.8646C13.225 11.9965 13.5 11.0278 13.5 9.95834C13.5 9.33334 13.3938 8.7257 13.1813 8.13543C12.9688 7.54515 12.6375 7.00001 12.1875 6.50001L12 6.29168V8.33334H10.5V3.33334H15V5.00001H12.9375L13.2375 5.29168C13.85 5.97223 14.2969 6.71182 14.5781 7.51043C14.8594 8.30904 15 9.12501 15 9.95834C15 11.5 14.5844 12.8715 13.7531 14.0729C12.9219 15.2743 11.8375 16.0695 10.5 16.4583Z" fill="#5F6368"/>
</svg>
