<svg width="20" height="20" viewBox="0 0 20 20" fill="none" xmlns="http://www.w3.org/2000/svg">
<path d="M5.74429 14.861V13.4723H16.4846V14.861H5.74429ZM5.74429 9.69436V8.3056H16.4846V9.69436H5.74429ZM5.74429 4.51394V3.12498H16.4846V4.51394H5.74429ZM1.65 15.6527C1.19625 15.6527 0.807813 15.5103 0.484688 15.2256C0.161563 14.9409 0 14.5902 0 14.1735C0 13.7569 0.159118 13.4039 0.477354 13.1146C0.79559 12.8253 1.18388 12.6806 1.64221 12.6806C2.10054 12.6806 2.48631 12.8275 2.7995 13.1212C3.11269 13.415 3.26929 13.7681 3.26929 14.1806C3.26929 14.5855 3.11071 14.9321 2.79354 15.2204C2.47653 15.5086 2.09535 15.6527 1.65 15.6527ZM1.65 10.486C1.19625 10.486 0.807813 10.3405 0.484688 10.0496C0.161563 9.75845 0 9.40859 0 8.99998C0 8.59137 0.161563 8.24151 0.484688 7.9504C0.807813 7.65942 1.19625 7.51394 1.65 7.51394C2.09535 7.51394 2.47653 7.65942 2.79354 7.9504C3.11071 8.24151 3.26929 8.59137 3.26929 8.99998C3.26929 9.40859 3.11071 9.75845 2.79354 10.0496C2.47653 10.3405 2.09535 10.486 1.65 10.486ZM1.63465 5.3056C1.18502 5.3056 0.800173 5.16005 0.480104 4.86894C0.160035 4.57797 0 4.22811 0 3.81936C0 3.41074 0.160035 3.06088 0.480104 2.76977C0.800173 2.4788 1.18502 2.33331 1.63465 2.33331C2.08412 2.33331 2.46897 2.4788 2.78919 2.76977C3.10926 3.06088 3.26929 3.41074 3.26929 3.81936C3.26929 4.22811 3.10926 4.57797 2.78919 4.86894C2.46897 5.16005 2.08412 5.3056 1.63465 5.3056Z" fill="#F32689"/>
</svg>
